<?xml version="1.0" standalone="no"?>
<!DOCTYPE svg PUBLIC "-//W3C//DTD SVG 20010904//EN"
 "http://www.w3.org/TR/2001/REC-SVG-20010904/DTD/svg10.dtd">
<svg version="1.0" xmlns="http://www.w3.org/2000/svg"
 width="498.000000pt" height="358.000000pt" viewBox="0 0 498.000000 358.000000"
 preserveAspectRatio="xMidYMid meet">
<metadata>
Created by potrace 1.15, written by Peter Selinger 2001-2017
</metadata>
<g transform="translate(0.000000,358.000000) scale(0.100000,-0.100000)"
fill="#000000" stroke="none">
<path d="M1806 2380 c-16 -5 -61 -12 -99 -16 -79 -8 -107 -27 -107 -72 0 -44
26 -72 66 -72 47 0 43 -16 -6 -24 -43 -7 -60 -27 -60 -74 0 -35 27 -62 63 -62
38 0 34 -17 -18 -93 -25 -37 -45 -77 -45 -90 0 -31 29 -56 74 -64 l36 -6 0
-59 c0 -84 10 -98 69 -98 26 0 50 3 53 6 3 3 1 19 -5 35 -10 26 -9 36 11 69
35 61 30 87 -29 146 -66 67 -68 93 -11 146 43 40 77 48 113 26 17 -11 22 -10
35 6 35 48 2 116 -56 116 -23 0 -30 4 -30 20 0 13 7 20 20 20 12 0 32 11 45
24 20 20 24 31 18 58 -12 64 -55 82 -137 58z"/>
<path d="M1970 2312 c0 -27 -6 -57 -14 -68 -13 -17 -12 -21 6 -41 25 -27 28
-101 5 -136 -14 -22 -14 -25 4 -44 11 -11 26 -37 34 -59 l13 -39 137 0 c105 0
139 3 148 14 8 10 12 74 12 203 0 176 -1 191 -19 204 -15 11 -56 14 -173 14
l-153 0 0 -48z m200 -172 l0 -80 -55 0 -55 0 0 80 0 80 55 0 55 0 0 -80z"/>
<path d="M2479 2323 c-17 -20 -17 -99 0 -116 9 -9 89 -13 283 -15 317 -3 318
-3 318 76 0 27 -5 53 -12 60 -9 9 -88 12 -294 12 -250 0 -283 -2 -295 -17z"/>
<path d="M2430 2111 c-5 -11 -10 -37 -10 -59 0 -55 22 -72 94 -72 32 0 56 -3
54 -7 -2 -5 -27 -56 -56 -115 -42 -83 -53 -114 -50 -144 5 -63 14 -65 330 -62
l276 3 27 25 c23 21 26 31 22 67 -2 23 -21 76 -40 118 -40 84 -63 100 -120 84
-50 -14 -68 -38 -65 -90 3 -43 3 -43 -37 -51 -59 -10 -153 -9 -160 2 -7 12 37
97 74 140 l26 30 145 2 c168 1 180 6 180 74 0 76 10 74 -355 74 -310 0 -325
-1 -335 -19z"/>
<path d="M1816 2034 c-14 -15 -26 -36 -26 -48 0 -25 88 -116 112 -116 9 0 30
12 47 26 44 37 41 67 -13 120 -51 52 -81 56 -120 18z"/>
<path d="M1965 1872 c-44 -39 -115 -136 -115 -156 0 -29 46 -66 81 -66 39 0
94 53 128 122 30 62 27 84 -11 108 -42 25 -47 25 -83 -8z"/>
<path d="M2170 1882 c-30 -24 -23 -62 28 -157 42 -79 68 -92 115 -55 43 34 30
112 -34 201 -24 35 -74 40 -109 11z"/>
</g>
</svg>
