<?xml version="1.0" standalone="no"?>
<!DOCTYPE svg PUBLIC "-//W3C//DTD SVG 20010904//EN"
    "http://www.w3.org/TR/2001/REC-SVG-20010904/DTD/svg10.dtd">
<svg version="1.0" xmlns="http://www.w3.org/2000/svg"
    width="278.000000pt" height="326.000000pt" viewBox="0 0 278.000000 326.000000"
    preserveAspectRatio="xMidYMid meet">
    <metadata>
        Created by potrace 1.15, written by Peter Selinger 2001-2017
    </metadata>
    <g transform="translate(0.000000,326.000000) scale(0.100000,-0.100000)"
        fill="#000000" stroke="none">
        <path d="M1234 3106 c-221 -42 -379 -123 -532 -270 -276 -266 -380 -675 -262
-1027 30 -89 95 -220 136 -274 30 -38 34 -50 29 -79 -4 -19 -2 -43 4 -55 11
-20 10 -20 -16 -10 -16 6 -79 30 -141 54 -78 30 -119 52 -134 70 -66 84 -201
67 -248 -30 -53 -110 37 -222 163 -202 49 8 463 -156 471 -186 3 -12 6 -198 6
-414 l0 -392 -42 -11 c-110 -28 -148 -50 -148 -83 0 -60 159 -100 400 -101
228 -1 373 33 403 94 24 47 123 50 153 5 34 -52 186 -85 391 -85 193 1 337 33
367 82 20 33 -36 68 -145 92 l-26 6 -5 402 c-3 222 -5 404 -4 404 0 1 63 -51
138 -115 94 -80 140 -126 148 -148 23 -65 105 -109 175 -93 97 22 145 142 90
226 -19 30 -87 63 -128 64 -22 0 -71 36 -209 152 -179 151 -180 152 -150 160
17 5 42 22 57 40 23 27 26 38 21 71 -6 33 -2 44 22 75 121 154 205 443 188
645 -37 449 -329 802 -756 914 -118 31 -309 39 -416 19z m-11 -377 c128 -35
197 -219 133 -354 -64 -136 -198 -173 -295 -82 -133 125 -95 375 65 432 48 17
50 17 97 4z m440 0 c128 -35 197 -219 133 -354 -64 -136 -198 -173 -295 -82
-133 125 -95 375 65 432 48 17 50 17 97 4z m-686 -331 c37 -137 179 -206 294
-145 l44 24 1 -29 c1 -30 38 -78 61 -78 10 0 13 -47 13 -236 l0 -237 -87 5
c-101 6 -208 35 -307 84 -78 38 -80 39 -70 23 12 -19 146 -77 235 -101 97 -26
282 -30 384 -9 124 26 348 112 332 127 -3 3 -22 -3 -44 -14 -99 -51 -312 -112
-389 -112 l-34 0 0 235 c0 188 3 235 13 235 23 0 60 48 61 78 l1 29 44 -24
c113 -60 255 8 293 141 6 23 13 43 14 45 6 7 140 -72 196 -116 145 -114 213
-271 187 -433 -19 -120 -80 -219 -188 -304 l-59 -46 -572 0 -572 0 -59 46
c-108 85 -169 184 -188 304 -26 162 42 319 187 432 50 40 177 118 192 118 3 0
11 -19 17 -42z m-691 -873 c80 -61 58 -188 -39 -224 -87 -33 -177 32 -177 129
0 36 6 48 39 81 35 35 43 39 91 39 41 0 60 -6 86 -25z m1224 -206 c0 -35 -55
-99 -86 -99 -16 0 -16 1 0 19 28 31 17 56 -24 56 -41 0 -52 -25 -24 -56 16
-18 16 -19 0 -19 -31 0 -86 64 -86 99 l0 31 110 0 110 0 0 -31z m-230 -31 c18
-52 67 -88 120 -88 53 0 102 36 120 88 l14 42 148 0 148 0 35 -53 c53 -80 77
-150 82 -247 10 -155 -36 -272 -151 -385 -174 -172 -426 -212 -653 -104 -131
62 -253 213 -282 347 -30 142 4 305 86 407 l28 35 145 0 146 0 14 -42z m1274
-297 c40 -27 55 -57 56 -112 0 -32 -6 -54 -21 -73 -82 -104 -239 -50 -239 83
0 37 6 49 39 82 34 35 44 39 87 39 32 0 60 -7 78 -19z m-1385 -726 c81 -16
134 -42 139 -68 5 -23 -68 -55 -167 -73 -274 -49 -703 25 -587 101 89 59 407
79 615 40z m817 15 c126 -13 189 -28 219 -52 24 -19 25 -22 10 -38 -38 -42
-265 -76 -430 -65 -171 11 -295 46 -295 81 0 20 71 50 150 63 129 21 222 24
346 11z"/>
        <path d="M1124 874 c106 -187 224 -268 335 -229 84 29 150 99 226 238 l37 67
-321 0 -320 0 43 -76z m566 61 c0 -15 -53 -107 -92 -160 -114 -154 -244 -165
-363 -32 -42 45 -125 173 -125 190 0 4 131 7 290 7 160 0 290 -2 290 -5z"/>
    </g>
</svg>
